<?xml version="1.0" encoding="utf-8"?>
<!-- Generator: Adobe Illustrator 16.0.0, SVG Export Plug-In . SVG Version: 6.00 Build 0)  -->
<!DOCTYPE svg PUBLIC "-//W3C//DTD SVG 1.1//EN" "http://www.w3.org/Graphics/SVG/1.1/DTD/svg11.dtd">
<svg version="1.1" id="Layer_1" xmlns="http://www.w3.org/2000/svg" xmlns:xlink="http://www.w3.org/1999/xlink" x="0px" y="0px"
	 width="99.41px" height="95.572px" viewBox="0 0 99.41 95.572" enable-background="new 0 0 99.41 95.572" xml:space="preserve">
<g>
	<g>
		<path d="M41.387,94.584c0.465,0.628,1.225,0.988,2.086,0.988c0.857,0,1.743-0.36,2.435-0.988
			c0.256-0.241,41.006-36.171,44.802-57.693C94.297,16.55,80.668,0,60.325,0C39.979,0,20.516,16.55,16.93,36.891
			C13.496,56.339,41.205,94.339,41.387,94.584z M59.239,6.13c16.963,0,28.33,13.797,25.333,30.761
			c-2.334,13.28-27.364,39.284-39.752,51.024c-8.245-11.732-24.102-37.738-21.76-51.024C26.049,19.927,42.28,6.13,59.239,6.13z"/>
	</g>
	<g>
		<path d="M85.487,49.673c5.417,3.7,8.716,7.368,7.937,9.718c-1.496,4.467-15.651,3.932-33.781-0.748l-4.691-1.295
			c-2.598-0.741-5.236-1.562-7.952-2.485C23.203,46.914,5.385,36.035,7.211,30.573c0.785-2.351,5.982-3.245,12.527-2.948
			c0.025-0.041,0.442-0.985,0.576-1.192C9.517,25.392,1.421,26.609,0.182,30.325C-2.148,37.294,18.139,50.36,45.5,59.472
			c2.582,0.869,5.143,1.667,7.664,2.393l4.691,1.318c21.897,5.765,39.407,6.099,41.369,0.201c1.244-3.714-3.847-9.107-13.14-14.758
			C85.957,48.827,85.487,49.659,85.487,49.673z"/>
	</g>
</g>
</svg>
